<?xml version="1.0" encoding="UTF-8" standalone="no"?>
<!-- Created with Inkscape (http://www.inkscape.org/) -->

<svg
   version="1.1"
   id="svg1"
   width="773.33331"
   height="620"
   viewBox="0 0 773.33331 620"
   sodipodi:docname="EVENTIME sound LOGO.eps"
   xmlns:inkscape="http://www.inkscape.org/namespaces/inkscape"
   xmlns:sodipodi="http://sodipodi.sourceforge.net/DTD/sodipodi-0.dtd"
   xmlns="http://www.w3.org/2000/svg"
   xmlns:svg="http://www.w3.org/2000/svg">
  <defs
     id="defs1" />
  <sodipodi:namedview
     id="namedview1"
     pagecolor="#ffffff"
     bordercolor="#000000"
     borderopacity="0.25"
     inkscape:showpageshadow="2"
     inkscape:pageopacity="0.0"
     inkscape:pagecheckerboard="0"
     inkscape:deskcolor="#d1d1d1">
    <inkscape:page
       x="0"
       y="0"
       inkscape:label="1"
       id="page1"
       width="773.33331"
       height="620"
       margin="0"
       bleed="0" />
  </sodipodi:namedview>
  <g
     id="g1"
     inkscape:groupmode="layer"
     inkscape:label="1">
    <path
       id="path1"
       d="M 0,4650 H 5800 V 0 H 0 v 4650"
       style="fill:#ffffff;fill-opacity:1;fill-rule:nonzero;stroke:none"
       transform="matrix(0.13333333,0,0,-0.13333333,0,620)" />
    <path
       id="path2"
       d="m 3107.8,3750.3 c 178.6,102.7 408.2,113 594.2,23.4 110.9,-53.5 203.3,-143.6 259.6,-253.2 75,-141.5 87.8,-312.9 41.5,-465.6 -42.7,-138.9 -140.3,-260 -266.8,-331.4 -138.8,-81.2 -309.5,-98 -464.8,-62.5 -208.6,49.6 -380.7,225.5 -421.9,436.5 -17.8,-47.8 -29.5,-98.2 -54.3,-143.3 -75.4,-149.7 -221.6,-259.2 -384.5,-295.7 -106.3,-22.6 -218.3,-19.2 -322.9,10.6 -144.7,42.5 -272.2,142.2 -345.5,274.3 -81,142.9 -97.7,319 -49.4,475.6 41.9,138.6 136.3,261.5 262.2,333.8 166.3,98.1 377.9,106.7 556.1,36.1 116.8,-45.7 218.2,-132.3 275.5,-244.5 -57.1,-18.4 -116,-30.6 -173,-49.5 -40.7,87.3 -124.9,146.3 -215.5,173 -108,35.8 -231.8,22.4 -327.7,-39.7 -114.8,-69.6 -185.3,-199.1 -193,-331.9 14.3,-12.9 35,-6.3 52.4,-8 569.9,6.4 1140.1,7.8 1710.1,10 60.4,4.7 121,3.9 181.5,4.9 -14.8,83.2 -39.3,167.3 -94.1,233.6 -83.9,105.5 -223.3,166.2 -357.8,146.7 -117.4,-17.1 -240.2,-79 -289.5,-192.8 -58.6,15.7 -117.8,28.8 -175.8,46.4 45,89.4 116.3,163.9 203.4,213.2"
       style="fill:#010101;fill-opacity:1;fill-rule:nonzero;stroke:none"
       transform="matrix(0.13333333,0,0,-0.13333333,0,620)" />
    <path
       id="path3"
       d="m 1873.5,3157.4 c 178.8,8.6 357.8,2.3 536.5,1.4 87.7,-1.7 175.3,0.2 262.9,-0.5 -15.1,-111.9 -69.2,-222.1 -162.8,-288.6 -117.8,-88.7 -285.8,-102.7 -417.5,-37.3 -125.3,58.9 -205.2,189.5 -219.1,325"
       style="fill:#ffffff;fill-opacity:1;fill-rule:nonzero;stroke:none"
       transform="matrix(0.13333333,0,0,-0.13333333,0,620)" />
    <path
       id="path4"
       d="m 3023.9,3154.2 c 142,0.5 284.1,3 426.2,4.6 124.8,6.6 249.9,1.8 374.8,5.3 -12.6,-110.4 -61,-220.1 -151.1,-288.8 -160.2,-131.4 -422.8,-105.7 -553.6,55.5 -54.1,62.6 -84.4,142.2 -96.3,223.4"
       style="fill:#ffffff;fill-opacity:1;fill-rule:nonzero;stroke:none"
       transform="matrix(0.13333333,0,0,-0.13333333,0,620)" />
    <path
       id="path5"
       d="m 2228,3062.7 c 28.4,44.6 81.4,64.2 131.8,69.7 50.8,-5.1 103.7,-25.9 131.7,-71 39.9,-55.7 32,-138.3 -17.2,-185.8 -56.8,-58.8 -156.6,-64.2 -218.8,-10.6 -58.3,46 -72.3,137.8 -27.5,197.7"
       style="fill:#010101;fill-opacity:1;fill-rule:nonzero;stroke:none"
       transform="matrix(0.13333333,0,0,-0.13333333,0,620)" />
    <path
       id="path6"
       d="m 3475.2,3122.3 c 78.1,24.7 172.6,-16.6 198.1,-96.4 30.3,-74.2 -18.6,-161.8 -91.7,-187.2 -81.8,-36.6 -187.3,14.5 -210.5,100.6 -24.5,76.4 29.4,161.1 104.1,183"
       style="fill:#010101;fill-opacity:1;fill-rule:nonzero;stroke:none"
       transform="matrix(0.13333333,0,0,-0.13333333,0,620)" />
    <path
       id="path7"
       d="m 3376.3,2452.7 c 51.1,0.1 102.3,0.1 153.4,-0.3 3.8,-51.7 1.3,-103.5 2,-155.3 -51.8,-0.3 -103.7,-0.1 -155.5,-0.1 -0.7,51.9 -0.7,103.8 0.1,155.7"
       style="fill:#010101;fill-opacity:1;fill-rule:nonzero;stroke:none"
       transform="matrix(0.13333333,0,0,-0.13333333,0,620)" />
    <path
       id="path8"
       d="m 3018,2216.9 c 6.5,64.9 1.7,130.1 3.8,195.2 51.1,-0.2 102.2,-0.1 153.3,-0.1 0.9,-64.9 0.2,-129.8 0.3,-194.7 42.3,0 84.7,0.4 127.1,-0.1 -0.3,-39.8 -0.2,-79.6 -0.1,-119.4 -42.4,0 -84.8,0 -127.2,0.3 0.9,-99.5 -0.5,-199.1 0.6,-298.6 -0.6,-26.9 26.8,-49.7 53.3,-46.2 30.6,-3.4 58.9,9.4 86.1,21.4 11,-41.2 22.2,-82.5 32,-124.1 -74.4,-30.9 -158.7,-54.5 -238.3,-29.9 -54.9,16.6 -88.7,73.7 -87.3,129.4 -0.5,115.9 -0.4,231.8 0,347.6 -25.9,0.4 -51.7,0.1 -77.5,-0.1 0,40.1 0.1,80.2 -0.2,120.4 24.7,-0.4 49.3,-0.7 74.1,-1.1"
       style="fill:#010101;fill-opacity:1;fill-rule:nonzero;stroke:none"
       transform="matrix(0.13333333,0,0,-0.13333333,0,620)" />
    <path
       id="path9"
       d="m 560.602,2129.6 c 114.398,125.3 331.898,132 454.898,15.7 75.1,-69.7 103.6,-177.9 90.1,-277.5 -154.299,-0.4 -308.498,0.8 -462.799,-0.6 8,-40.3 23.699,-81.1 56.699,-107.6 72.5,-65.1 200.5,-41.4 246.5,44.3 42.801,-15.9 87.7,-24.7 130.9,-39.4 -45,-78.6 -124.599,-137.3 -214.9,-150 -103.199,-18.9 -218.602,6.8 -293,83.8 -115,111.9 -116.898,314.5 -8.398,431.3"
       style="fill:#010101;fill-opacity:1;fill-rule:nonzero;stroke:none"
       transform="matrix(0.13333333,0,0,-0.13333333,0,620)" />
    <path
       id="path10"
       d="m 1747.2,2122.6 c 106.8,125.5 314.6,140.2 442.4,38.7 86.2,-68.1 126.8,-186.6 107.2,-293.7 -153.9,-0.3 -307.9,1.6 -461.8,-0.9 9.5,-41.7 25.9,-84.5 61.2,-111.2 73.9,-59.7 197.1,-35.9 242,48.6 42.4,-15.9 86.8,-25.4 130.2,-38.1 -90.1,-178.4 -357.4,-208.2 -498.9,-75.8 -119.7,108.2 -127.7,311.7 -22.3,432.4"
       style="fill:#010101;fill-opacity:1;fill-rule:nonzero;stroke:none"
       transform="matrix(0.13333333,0,0,-0.13333333,0,620)" />
    <path
       id="path11"
       d="m 2486.4,2111.2 c 51.4,76 142.6,118.4 233.4,116.1 47.2,2.8 96.9,-11.9 129.8,-47.2 39.9,-42.3 50.1,-102.8 54,-158.8 0.7,-133.1 -0.3,-266.2 0.5,-399.3 -51.9,0.9 -103.8,0.1 -155.7,0.7 0.1,115.8 0.7,231.6 -0.2,347.3 0.3,40.8 -9.5,88.1 -47.6,110.3 -44,25.7 -99.6,5.7 -136,-24.4 -30.6,-26.7 -64,-61.3 -62,-105.1 0.5,-109.5 -0.3,-219 0.6,-328.5 -51.9,0.3 -103.7,0.1 -155.6,0.2 0.4,198.3 0.2,396.5 0.1,594.8 46.6,0.3 93.1,0 139.7,0.3 -0.3,-35.5 -0.7,-70.9 -1,-106.4"
       style="fill:#010101;fill-opacity:1;fill-rule:nonzero;stroke:none"
       transform="matrix(0.13333333,0,0,-0.13333333,0,620)" />
    <path
       id="path12"
       d="m 3909.2,2220.5 c 58.7,11.1 126.6,14.1 176.9,-23.6 30.9,-22.3 48,-57.5 61.3,-92.1 44.3,77.9 132.6,127.7 222.4,122.5 53.8,2.9 108.6,-23.5 137.4,-69.4 29.8,-46.6 35.9,-103.4 37.9,-157.4 0.6,-126.2 -0.3,-252.3 0.5,-378.4 -52.4,0.7 -104.9,0.2 -157.2,0.4 0.2,119.6 0.4,239.2 -0.1,358.8 -0.4,37.8 -13.5,79.1 -47.5,99.5 -41.3,24.6 -93.8,5.8 -126.8,-24.1 -32.4,-29.8 -59.6,-71.4 -57.5,-117.1 0.8,-105.8 -1.1,-211.7 1.1,-317.5 -51.2,0.6 -102.5,0.5 -153.8,0 0.7,116.4 0.6,232.7 0.2,349 -0.2,49.1 -19.9,110.4 -75,120.1 -74,8.4 -140.9,-54.7 -156.5,-123.9 -1.6,-114.9 -0.3,-229.9 -0.5,-344.8 -52,-0.1 -104.1,0.1 -156.2,-0.2 0.8,198.4 0.2,396.7 0.3,595.1 46.7,0.2 93.3,-0.3 140,0.5 0.4,-35.6 -0.5,-71.1 -0.9,-106.7 36.6,53.3 89.8,95.6 154,109.3"
       style="fill:#010101;fill-opacity:1;fill-rule:nonzero;stroke:none"
       transform="matrix(0.13333333,0,0,-0.13333333,0,620)" />
    <path
       id="path13"
       d="m 4667,2123.4 c 116.6,136.6 353.2,140.3 474.1,7.6 45.3,-46.5 66.2,-109.3 79.4,-171.4 4.6,-28.1 3.5,-56.7 2.8,-85.2 -14.3,-3 -28.5,-6.7 -43.2,-6.6 -141.3,-0.5 -282.6,0.8 -423.9,-0.5 5.3,-57 41.4,-111.5 95.4,-132.9 73.8,-30.9 166.8,-1.3 206.1,69.4 42.7,-15.7 87.6,-24.5 130.6,-39.2 -34.5,-58.8 -86.3,-108 -150.5,-132.7 -119.1,-45 -267.9,-26.3 -358.7,67.7 -111.3,110.4 -115.1,306.8 -12.1,423.8"
       style="fill:#010101;fill-opacity:1;fill-rule:nonzero;stroke:none"
       transform="matrix(0.13333333,0,0,-0.13333333,0,620)" />
    <path
       id="path14"
       d="m 1077.1,2217.4 c 53.1,0.2 106.1,-0.2 159.2,0.3 52.7,-156.3 99.3,-314.7 153.1,-470.7 45.6,158.1 100.5,313.3 149.4,470.4 48.9,0.1 97.8,0.1 146.6,0 -75.4,-197.7 -146.2,-397.3 -220.8,-595.4 -55.6,0.8 -111.2,0.6 -166.8,0.1 -74.5,198.1 -145.3,397.6 -220.7,595.3"
       style="fill:#010101;fill-opacity:1;fill-rule:nonzero;stroke:none"
       transform="matrix(0.13333333,0,0,-0.13333333,0,620)" />
    <path
       id="path15"
       d="m 3376,2217.5 c 51.9,-0.2 103.9,0.2 155.9,-0.4 -0.3,-198.1 -0.5,-396.2 0.1,-594.3 -52,-0.7 -103.9,0 -155.8,-0.6 -0.7,198.4 -0.4,396.9 -0.2,595.3"
       style="fill:#010101;fill-opacity:1;fill-rule:nonzero;stroke:none"
       transform="matrix(0.13333333,0,0,-0.13333333,0,620)" />
    <path
       id="path16"
       d="m 641.699,1968.3 c 4.102,80.4 76.699,152.3 158.602,147 78.301,0.1 146.801,-69.2 148.5,-147.1 -46.102,5 -92.5,3.2 -138.801,3.4 -30,0 -60,-0.1 -90,0.2 -26.102,0.2 -52.199,-1.2 -78.301,-3.5"
       style="fill:#ffffff;fill-opacity:1;fill-rule:nonzero;stroke:none"
       transform="matrix(0.13333333,0,0,-0.13333333,0,620)" />
    <path
       id="path17"
       d="m 1880.4,2070.4 c 51.1,55.2 143.5,59.8 201.8,13.2 36.6,-25.7 51.8,-69.6 62.3,-111.1 -103.9,-1.8 -207.9,-0.9 -311.8,-0.5 8.3,35.8 19.6,72.9 47.7,98.4"
       style="fill:#ffffff;fill-opacity:1;fill-rule:nonzero;stroke:none"
       transform="matrix(0.13333333,0,0,-0.13333333,0,620)" />
    <path
       id="path18"
       d="m 4799.5,2070.5 c 51.7,55.1 145.3,60.2 203.2,11.8 35.8,-25.7 51.1,-68.8 59.8,-110.3 -77.5,-0.8 -155,-0.3 -232.5,-0.3 -25.8,0 -51.6,-0.2 -77.2,-2.5 6,37.2 18.4,74.9 46.7,101.3"
       style="fill:#ffffff;fill-opacity:1;fill-rule:nonzero;stroke:none"
       transform="matrix(0.13333333,0,0,-0.13333333,0,620)" />
    <path
       id="path19"
       d="m 500,1500 c 1560,0 3120,0 4680,0 0,-86.7 0,-173.3 0,-260 -1560,0 -3120,0 -4680,0 0,86.7 0,173.3 0,260"
       style="fill:#010101;fill-opacity:1;fill-rule:nonzero;stroke:none"
       transform="matrix(0.13333333,0,0,-0.13333333,0,620)" />
    <path
       id="path20"
       d="m 1287,1431.9 c 20.6,29.4 63.6,33.6 94.2,18.6 18.2,-8.3 22.8,-29.9 31.3,-46.2 -6,-0.9 -18,-2.6 -24,-3.4 -8,46.3 -85.6,49.3 -85.6,-2.1 35.5,-24 96.7,-12.7 112.9,-60.2 9.8,-51.3 -56.5,-74.6 -96,-57.7 -29.7,5.9 -42.3,35.6 -46.9,62.4 32.3,4.2 31,-38.4 59.1,-43.2 24.5,-9.2 70.9,5.4 58.1,38.4 -24.8,28.4 -73.2,16.2 -100.4,43.1 -10.9,14.1 -10.9,35 -2.7,50.3"
       style="fill:#ffffff;fill-opacity:1;fill-rule:nonzero;stroke:none"
       transform="matrix(0.13333333,0,0,-0.13333333,0,620)" />
    <path
       id="path21"
       d="m 1724.6,1453.2 c 51.1,22.8 111.9,-17.6 113.4,-72.6 11.3,-56.4 -39.1,-119.5 -99.1,-102.6 -81,14.6 -87.9,145 -14.3,175.2"
       style="fill:#ffffff;fill-opacity:1;fill-rule:nonzero;stroke:none"
       transform="matrix(0.13333333,0,0,-0.13333333,0,620)" />
    <path
       id="path22"
       d="m 2101.8,1456.4 c 6.1,0 18.4,-0.1 24.5,-0.1 0.7,-41.9 -1.8,-84 1.1,-125.9 6.4,-43.8 84.5,-44.3 87.6,1.9 2.6,41.2 0.2,82.6 1,123.9 6,0.1 18,0.1 24,0.1 -1.1,-44.9 2.4,-90.1 -1.8,-134.9 -12.1,-65.7 -132.6,-59.6 -135.6,8.6 -2.3,42.1 -0.3,84.3 -0.8,126.4"
       style="fill:#ffffff;fill-opacity:1;fill-rule:nonzero;stroke:none"
       transform="matrix(0.13333333,0,0,-0.13333333,0,620)" />
    <path
       id="path23"
       d="m 2513.7,1456.4 c 8.8,0 17.6,-0.1 26.4,-0.2 29.3,-47 60.6,-92.6 89.9,-139.6 0,46.6 0,93.2 0,139.7 6,0 18,0 24,0 -0.2,-59.3 0.6,-118.6 -0.6,-177.9 -6.7,1.4 -20.2,4.4 -27,5.8 -31.6,43.5 -58.5,90.3 -88.4,135 0.4,-45.8 0.3,-91.7 0.2,-137.5 -6.1,0 -18.4,0 -24.5,0 0,58.3 0,116.5 0,174.7"
       style="fill:#ffffff;fill-opacity:1;fill-rule:nonzero;stroke:none"
       transform="matrix(0.13333333,0,0,-0.13333333,0,620)" />
    <path
       id="path24"
       d="m 2930,1456.3 c 42.5,-1.5 97.7,10.3 126,-30.8 19.4,-35.2 17.3,-83.3 -4.4,-117.1 -28.5,-38.2 -80.9,-24.1 -121.6,-26.7 0,58.2 0,116.4 0,174.6"
       style="fill:#ffffff;fill-opacity:1;fill-rule:nonzero;stroke:none"
       transform="matrix(0.13333333,0,0,-0.13333333,0,620)" />
    <path
       id="path25"
       d="m 3761.6,1429 c 23.7,31.1 68.9,36.1 103.9,24.2 25.8,-9.7 38.5,-35.6 47.3,-59.9 -16,-0.8 -31.9,-1.5 -47.8,-2 -2.8,5 -8.3,15.2 -11,20.2 -6.6,3.4 -19.7,10.1 -26.3,13.4 -48.3,-15.3 -55.7,-95.9 -5.9,-112.5 24.1,-8.7 37.7,18.4 46,36.1 14.9,-0.1 29.7,-0.3 44.7,-0.6 -3.8,-52.1 -57.4,-88 -107.2,-71.9 -65.9,14 -82.9,104.9 -43.7,153"
       style="fill:#ffffff;fill-opacity:1;fill-rule:nonzero;stroke:none"
       transform="matrix(0.13333333,0,0,-0.13333333,0,620)" />
    <path
       id="path26"
       d="m 4173.7,1456.5 c 15.6,-0.1 31.2,-0.2 46.8,-0.4 20,-34.3 41.2,-67.9 61.5,-102.1 -0.4,34.1 -0.3,68.2 -0.3,102.3 14.8,0.1 29.7,0 44.6,0 0,-58.7 0,-117.5 0,-176.3 -15.8,0 -31.5,0.1 -47.2,0 -20.4,33.6 -40.5,67.4 -61,100.9 0.2,-33.6 0.2,-67.2 0.2,-100.9 -15,0 -29.8,0.1 -44.6,0 0,58.8 0,117.7 0,176.5"
       style="fill:#ffffff;fill-opacity:1;fill-rule:nonzero;stroke:none"
       transform="matrix(0.13333333,0,0,-0.13333333,0,620)" />
    <path
       id="path27"
       d="m 3336,1456.2 c 40.7,-2.2 83.1,6.1 122.7,-5.8 30.3,-12.2 25.3,-53.3 7.8,-74.6 32.3,-22.2 30,-81.3 -10.6,-92.4 -39.5,-7.1 -80.1,-2 -119.9,-3.3 0,58.7 0,117.4 0,176.1"
       style="fill:#ffffff;fill-opacity:1;fill-rule:nonzero;stroke:none"
       transform="matrix(0.13333333,0,0,-0.13333333,0,620)" />
    <path
       id="path28"
       d="m 2954,1434.4 c 26.8,-2.9 62.9,7.4 79.9,-20.2 14.2,-26.6 14.2,-62.2 -0.2,-88.8 -16.7,-27.7 -52.7,-20 -79.8,-22.3 0.2,43.8 0.1,87.6 0.1,131.3"
       style="fill:#010101;fill-opacity:1;fill-rule:nonzero;stroke:none"
       transform="matrix(0.13333333,0,0,-0.13333333,0,620)" />
    <path
       id="path29"
       d="m 1724.4,1426.7 c 35.4,27.1 89.2,-3.4 88.8,-46.8 8.6,-38.8 -19.2,-87.6 -63.2,-81.8 -58.8,7.9 -69.3,96.1 -25.6,128.6"
       style="fill:#010101;fill-opacity:1;fill-rule:nonzero;stroke:none"
       transform="matrix(0.13333333,0,0,-0.13333333,0,620)" />
    <path
       id="path30"
       d="m 3384.2,1423.4 c 14.6,-1.3 29.4,-1.7 43.8,-5 4.1,-9.4 4.8,-19.8 6.5,-29.8 -16.9,-1.4 -33.8,-2.3 -50.6,-3.3 0.1,12.7 0.1,25.4 0.3,38.1"
       style="fill:#010101;fill-opacity:1;fill-rule:nonzero;stroke:none"
       transform="matrix(0.13333333,0,0,-0.13333333,0,620)" />
    <path
       id="path31"
       d="m 3384,1357.4 c 20.8,-2.8 62,5.6 57.8,-27.9 -9.5,-22.8 -38.6,-12.7 -57.8,-16.9 0,15 0,29.9 0,44.8"
       style="fill:#010101;fill-opacity:1;fill-rule:nonzero;stroke:none"
       transform="matrix(0.13333333,0,0,-0.13333333,0,620)" />
  </g>
</svg>
